<svg xmlns="http://www.w3.org/2000/svg" viewBox="0 0 800 450" width="800" height="450">
  <rect width="800" height="450" fill="#0e2334"/>
  <text x="400" y="28" font-family="monospace" font-size="11" fill="#dd7c99" text-anchor="middle">FLOOR PLANS — ALL LEVELS OVERVIEW</text>
  <!-- 6 mini floor plan thumbnails -->
  <!-- B2 -->
  <rect x="30" y="50" width="115" height="115" fill="#0a1825" stroke="#839ba3" stroke-width="1" rx="2"/>
  <text x="87" y="68" font-family="monospace" font-size="8" fill="#dd7c99" text-anchor="middle">B2 — SAFE ROOMS</text>
  <rect x="40" y="75" width="95" height="75" fill="#1a0a20" opacity="0.7" rx="1"/>
  <rect x="48" y="82" width="35" height="28" fill="#2a0a3a" opacity="0.7" rx="1"/>
  <text x="65" y="98" font-family="monospace" font-size="5" fill="#839ba3" text-anchor="middle">PSS</text>
  <rect x="88" y="82" width="35" height="28" fill="#2a0a3a" opacity="0.7" rx="1"/>
  <text x="105" y="98" font-family="monospace" font-size="5" fill="#839ba3" text-anchor="middle">SRHR</text>
  <rect x="48" y="115" width="75" height="28" fill="#1a0a30" opacity="0.7" rx="1"/>
  <text x="85" y="131" font-family="monospace" font-size="5" fill="#839ba3" text-anchor="middle">CASE MGMT / INTAKE</text>
  <!-- B1 -->
  <rect x="155" y="50" width="115" height="115" fill="#0a1825" stroke="#839ba3" stroke-width="1" rx="2"/>
  <text x="212" y="68" font-family="monospace" font-size="8" fill="#dd7c99" text-anchor="middle">B1 — PARKING</text>
  <rect x="163" y="75" width="99" height="75" fill="#0e1a28" opacity="0.7" rx="1"/>
  <!-- Parking spaces -->
  <rect x="168" y="80" width="15" height="22" fill="#1a2a3a" opacity="0.8" rx="1"/>
  <rect x="186" y="80" width="15" height="22" fill="#1a2a3a" opacity="0.8" rx="1"/>
  <rect x="204" y="80" width="15" height="22" fill="#1a2a3a" opacity="0.8" rx="1"/>
  <rect x="222" y="80" width="15" height="22" fill="#1a2a3a" opacity="0.8" rx="1"/>
  <rect x="240" y="80" width="15" height="22" fill="#1a2a3a" opacity="0.8" rx="1"/>
  <rect x="168" y="108" width="15" height="22" fill="#1a2a3a" opacity="0.8" rx="1"/>
  <rect x="186" y="108" width="15" height="22" fill="#1a2a3a" opacity="0.8" rx="1"/>
  <rect x="204" y="108" width="15" height="22" fill="#1a2a3a" opacity="0.8" rx="1"/>
  <rect x="222" y="108" width="15" height="22" fill="#1a2a3a" opacity="0.8" rx="1"/>
  <rect x="240" y="108" width="15" height="22" fill="#1a2a3a" opacity="0.8" rx="1"/>
  <!-- GF -->
  <rect x="280" y="50" width="115" height="115" fill="#0a1825" stroke="#dd7c99" stroke-width="1" rx="2"/>
  <text x="337" y="68" font-family="monospace" font-size="8" fill="#dd7c99" text-anchor="middle">GF — COMMUNITY</text>
  <rect x="288" y="75" width="60" height="40" fill="#1a3020" opacity="0.5" rx="1"/>
  <text x="318" y="97" font-family="monospace" font-size="5" fill="#839ba3" text-anchor="middle">CAFÉ</text>
  <rect x="352" y="75" width="35" height="40" fill="#1a2a3a" opacity="0.5" rx="1"/>
  <text x="369" y="97" font-family="monospace" font-size="5" fill="#839ba3" text-anchor="middle">REC</text>
  <rect x="288" y="120" width="99" height="35" fill="#1a2a5a" opacity="0.4" rx="1"/>
  <text x="337" y="140" font-family="monospace" font-size="5" fill="#839ba3" text-anchor="middle">EVENT HALL — 200 seats</text>
  <!-- 1F -->
  <rect x="405" y="50" width="115" height="115" fill="#0a1825" stroke="#839ba3" stroke-width="1" rx="2"/>
  <text x="462" y="68" font-family="monospace" font-size="8" fill="#dd7c99" text-anchor="middle">1F — CO-WORK</text>
  <rect x="413" y="75" width="99" height="55" fill="#1a2a5a" opacity="0.4" rx="1"/>
  <text x="462" y="105" font-family="monospace" font-size="5" fill="#839ba3" text-anchor="middle">OPEN CO-WORKING</text>
  <rect x="413" y="133" width="30" height="28" fill="#1e2a3a" opacity="0.7" rx="1"/>
  <text x="428" y="149" font-family="monospace" font-size="4" fill="#839ba3" text-anchor="middle">MTG</text>
  <rect x="448" y="133" width="18" height="13" fill="#1e2a3a" opacity="0.7" rx="1"/>
  <rect x="470" y="133" width="18" height="13" fill="#1e2a3a" opacity="0.7" rx="1"/>
  <rect x="492" y="133" width="18" height="13" fill="#1e2a3a" opacity="0.7" rx="1"/>
  <rect x="448" y="148" width="18" height="13" fill="#1e2a3a" opacity="0.7" rx="1"/>
  <rect x="470" y="148" width="18" height="13" fill="#1e2a3a" opacity="0.7" rx="1"/>
  <rect x="492" y="148" width="18" height="13" fill="#1e2a3a" opacity="0.7" rx="1"/>
  <!-- 2F -->
  <rect x="530" y="50" width="115" height="115" fill="#0a1825" stroke="#839ba3" stroke-width="1" rx="2"/>
  <text x="587" y="68" font-family="monospace" font-size="8" fill="#dd7c99" text-anchor="middle">2F — MEDIA</text>
  <rect x="538" y="75" width="70" height="55" fill="#2a1a3a" opacity="0.5" rx="1"/>
  <text x="573" y="103" font-family="monospace" font-size="5" fill="#839ba3" text-anchor="middle">RADIO STUDIO</text>
  <rect x="613" y="75" width="24" height="26" fill="#1a1a3a" opacity="0.7" rx="1"/>
  <text x="625" y="90" font-family="monospace" font-size="4" fill="#839ba3" text-anchor="middle">POD 1</text>
  <rect x="613" y="103" width="24" height="27" fill="#1a1a3a" opacity="0.7" rx="1"/>
  <text x="625" y="118" font-family="monospace" font-size="4" fill="#839ba3" text-anchor="middle">POD 2</text>
  <rect x="538" y="133" width="30" height="28" fill="#1a2a3a" opacity="0.7" rx="1"/>
  <text x="553" y="149" font-family="monospace" font-size="4" fill="#839ba3" text-anchor="middle">EDIT 1</text>
  <rect x="572" y="133" width="30" height="28" fill="#1a2a3a" opacity="0.7" rx="1"/>
  <text x="587" y="149" font-family="monospace" font-size="4" fill="#839ba3" text-anchor="middle">EDIT 2</text>
  <rect x="606" y="133" width="30" height="28" fill="#2a1a4a" opacity="0.7" rx="1"/>
  <text x="621" y="149" font-family="monospace" font-size="4" fill="#dd7c99" text-anchor="middle">DIR.</text>
  <!-- Roof -->
  <rect x="655" y="50" width="115" height="115" fill="#0a1825" stroke="#839ba3" stroke-width="1" rx="2"/>
  <text x="712" y="68" font-family="monospace" font-size="8" fill="#dd7c99" text-anchor="middle">ROOF — AMENITY</text>
  <rect x="665" y="75" width="97" height="55" fill="#1a3040" opacity="0.5" rx="1"/>
  <text x="713" y="103" font-family="monospace" font-size="5" fill="#839ba3" text-anchor="middle">SOLAR PANELS</text>
  <rect x="665" y="133" width="55" height="28" fill="#1a3a20" opacity="0.5" rx="1"/>
  <text x="692" y="149" font-family="monospace" font-size="4" fill="#839ba3" text-anchor="middle">PADEL COURT</text>
  <rect x="725" y="133" width="35" height="28" fill="#1a2a3a" opacity="0.5" rx="1"/>
  <text x="742" y="149" font-family="monospace" font-size="4" fill="#839ba3" text-anchor="middle">HVAC</text>
  <!-- Structural grid legend -->
  <rect x="30" y="190" width="740" height="55" fill="#0a1825" rx="4" stroke="#dd7c99" stroke-width="0.5" opacity="0.5"/>
  <text x="400" y="207" font-family="monospace" font-size="9" fill="#dd7c99" text-anchor="middle">STRUCTURAL GRID · A–D AXIS</text>
  <line x1="60" y1="225" x2="750" y2="225" stroke="#839ba3" stroke-width="1" opacity="0.3"/>
  <text x="60" y="222" font-family="monospace" font-size="8" fill="#839ba3">A</text>
  <text x="250" y="222" font-family="monospace" font-size="8" fill="#839ba3">B</text>
  <text x="440" y="222" font-family="monospace" font-size="8" fill="#839ba3">C</text>
  <text x="630" y="222" font-family="monospace" font-size="8" fill="#839ba3">D</text>
  <line x1="60" y1="215" x2="60" y2="235" stroke="#839ba3" stroke-width="1" opacity="0.5"/>
  <line x1="250" y1="215" x2="250" y2="235" stroke="#839ba3" stroke-width="1" opacity="0.5"/>
  <line x1="440" y1="215" x2="440" y2="235" stroke="#839ba3" stroke-width="1" opacity="0.5"/>
  <line x1="630" y1="215" x2="630" y2="235" stroke="#839ba3" stroke-width="1" opacity="0.5"/>
  <!-- Summary table -->
  <rect x="30" y="265" width="740" height="120" fill="#0a1825" rx="4" stroke="#dd7c99" stroke-width="0.5" opacity="0.5"/>
  <text x="400" y="283" font-family="monospace" font-size="9" fill="#dd7c99" text-anchor="middle">FLOOR AREA SCHEDULE</text>
  <line x1="50" y1="290" x2="750" y2="290" stroke="#839ba3" stroke-width="0.5" opacity="0.3"/>
  <text x="60" y="305" font-family="monospace" font-size="8" fill="#839ba3">Level</text>
  <text x="180" y="305" font-family="monospace" font-size="8" fill="#839ba3">Use</text>
  <text x="450" y="305" font-family="monospace" font-size="8" fill="#839ba3">Area</text>
  <text x="600" y="305" font-family="monospace" font-size="8" fill="#839ba3">Key Feature</text>
  <text x="60" y="320" font-family="monospace" font-size="8" fill="white">Roof</text>
  <text x="180" y="320" font-family="monospace" font-size="8" fill="#839ba3">Amenity + Solar</text>
  <text x="450" y="320" font-family="monospace" font-size="8" fill="#839ba3">~500 m²</text>
  <text x="600" y="320" font-family="monospace" font-size="8" fill="#839ba3">Padel court · PV panels</text>
  <text x="60" y="335" font-family="monospace" font-size="8" fill="white">2F</text>
  <text x="180" y="335" font-family="monospace" font-size="8" fill="#839ba3">Media Production</text>
  <text x="450" y="335" font-family="monospace" font-size="8" fill="#839ba3">~500 m²</text>
  <text x="600" y="335" font-family="monospace" font-size="8" fill="#839ba3">Radio · Podcast · Editing</text>
  <text x="60" y="350" font-family="monospace" font-size="8" fill="white">1F</text>
  <text x="180" y="350" font-family="monospace" font-size="8" fill="#839ba3">Co-working + Offices</text>
  <text x="450" y="350" font-family="monospace" font-size="8" fill="#839ba3">~500 m²</text>
  <text x="600" y="350" font-family="monospace" font-size="8" fill="#839ba3">10 offices · Meeting room</text>
  <text x="60" y="365" font-family="monospace" font-size="8" fill="white">GF</text>
  <text x="180" y="365" font-family="monospace" font-size="8" fill="#839ba3">Community</text>
  <text x="450" y="365" font-family="monospace" font-size="8" fill="#839ba3">~500 m²</text>
  <text x="600" y="365" font-family="monospace" font-size="8" fill="#839ba3">Café · Event hall · Garden</text>
  <!-- Label -->
  <rect x="0" y="400" width="800" height="50" fill="rgba(14,35,52,0.9)"/>
  <text x="30" y="422" font-family="monospace" font-size="10" fill="#dd7c99">06 / 06</text>
  <text x="30" y="438" font-family="monospace" font-size="11" fill="white">Complete Floor Plans — A–D Structural Grid · All 6 Levels</text>
</svg>
